<?xml version="1.0" encoding="UTF-8"?>
<!DOCTYPE svg PUBLIC "-//W3C//DTD SVG 1.1//EN" "http://www.w3.org/Graphics/SVG/1.1/DTD/svg11.dtd">
<!-- Creator: CorelDRAW -->
<svg xmlns="http://www.w3.org/2000/svg" xml:space="preserve" width="5.5033mm" height="4.977mm" version="1.1" style="shape-rendering:geometricPrecision; text-rendering:geometricPrecision; image-rendering:optimizeQuality; fill-rule:evenodd; clip-rule:evenodd"
viewBox="0 0 510.66 461.83"
 xmlns:xlink="http://www.w3.org/1999/xlink"
 xmlns:xodm="http://www.corel.com/coreldraw/odm/2003">
 <defs>
  <style type="text/css">
   <![CDATA[
    .fil0 {fill:black}
   ]]>
  </style>
 </defs>
 <g id="Capa_x0020_1">
  <metadata id="CorelCorpID_0Corel-Layer"/>
  <path class="fil0" d="M255.34 0c141.02,0 255.33,114.32 255.33,255.33 0,33.95 -6.64,66.36 -18.66,95.97 -7.93,-0.92 -15.28,-3.05 -21.28,-6.66 -7.75,-2.86 -19.76,-12.74 -23.46,-17.32 -17.18,-21.28 -15.84,-28.12 -23.11,-38.01 -2.38,-3.25 -7.2,-8.06 -10.11,-10.25 -10.31,-7.79 -13.52,-9.59 -24.7,-16.03 -33.33,-19.17 -34.94,-1.77 -66.05,-15.45 -9.58,-4.21 -17.22,-10.39 -24.48,-16.25l-22.41 -18.14c0.89,-0.96 1.13,-0.84 1.91,-2.13 -1.47,-1.75 -4.86,-2.51 -7.47,-3.28 1.03,-1.94 1.54,-1.16 2.52,-3.03 -1.89,-1.63 -3.98,-1.65 -4.64,-4.05l4.81 -1.45c-2.86,-1.8 -8.43,-1.53 -11.38,-3.75 0.71,-0.9 1.6,-1.17 2.25,-1.61 1.66,-1.1 0.77,0.18 1.5,-1.65 -3.93,-2.87 -9.33,-1.35 -14.76,-1.71 0.46,-1.76 2.1,-2.2 3.5,-3.63 -2.1,-2.26 -8.11,-2.21 -10.45,-5.3l3.44 -1.19c-1.09,-2.37 -5.05,-4.39 -7.79,-5.94 1.09,-1.94 -0.44,0.97 2.04,-1.74 -1.35,-0.85 -1.37,-1.22 -2.45,-2.1 -0.72,-0.61 -1.37,-1.03 -2.45,-1.86 -4.28,-3.28 -10.68,-11.14 -10.59,-15.55 2.41,-0.28 4.18,-0.1 6.38,0.46 5.12,1.32 4.15,1.61 5.27,0.26 2,-2.96 -3.41,-11.85 -4.87,-14.06 -3.37,-5.08 -7.27,-7.58 -9.53,-10.31 -8.95,-10.8 -5.54,-14.54 -14.04,-25.61 -6.56,-8.49 -11.79,-4.73 -20.67,-19.56l-14.5 -25.02c-3.21,-0.32 -5.02,1.05 -6.5,2.64 -10.73,11.52 -5.04,7.86 -8.11,18.17 -3.67,-0.29 -2.17,-3.83 -6.21,-4.02 -3.21,3.01 -0.87,14.64 -0.37,19.87 1.43,14.98 2.48,29.1 1.73,44.21 -0.72,14.47 -3.44,14.24 -4.65,18.24 1.54,1.27 3.39,1.88 1.95,4.67 -0.37,0.71 -3.01,3.44 -3.51,3.92l3.1 1.07c-6.46,8.42 -1.06,9.54 -7.85,18.28l4.35 -1.41c-0.51,4.8 -3.54,8.95 -4.32,12.37 -0.68,2.97 0.25,2.53 0.58,4.21 0.66,3.19 -4.81,10.52 -5.38,16.13 2.77,-1.31 1.35,-1.84 4.06,-2.37l-0.34 9.95c2.05,-0.65 0.45,-1.35 3.29,-1.18 3.55,5 1.64,21.43 1.65,28.37l3.52 -0.39c1.54,7.64 -4.74,13.21 5.41,11.37 0.3,2.35 0.57,4.7 1,6.96 1.28,6.53 1.29,5.41 8.04,6.48 0.98,3.37 -0.75,5.99 0.85,9.96l2.23 0.1c0.55,2.25 1.27,4.82 2.3,6.59l2.93 -0.8 2.77 8.87c3.27,1.12 1.21,-0.83 4.22,-0.93 0.98,1.54 0.75,1.86 1.05,3.69 0.98,6.08 1.83,0.15 2.96,5.65 0.41,1.93 0,2 1.5,3.22 2.86,-0.61 0.7,-1.22 3.22,-2.43 2.02,3.51 2.34,7.22 3.03,11.81 0.9,6.08 1.74,6.69 3.88,10.81 2.27,-0.82 1.45,-1.09 2.33,-3.83 2.49,3.53 9.46,31.13 8.78,36.51 1.68,2.45 1.24,24.49 1.17,29.3 -0.06,3.27 -1.98,25.53 -4.7,25.84l-1.84 0.28c-42.49,9.46 -79.99,18.71 -113.22,27.79 -54.7,-46.82 -89.37,-116.37 -89.37,-194.04 0,-141.01 114.31,-255.33 255.34,-255.33zm213.44 395.48c-4.97,7.55 -10.32,14.84 -16.06,21.81 -0.28,-3.6 -0.58,-7.57 -1.07,-9.17 -0.88,-2.84 -15.6,-16.29 -21.09,-26.05 -2.44,-4.33 -7.64,-20.14 -3.73,-25.29 4.4,1.77 0.4,10.96 5.38,13.49 2.04,-1.9 1.03,-3.88 2.9,-6.21 2.54,3.21 4.23,14.46 7.27,16.78 1.6,-2.78 0.27,-6 2.68,-8.45 5.8,2.12 4.71,12.69 11.78,16.69 1.41,-2.2 0.91,-3.72 2.68,-5.99 1.52,0.48 0.96,0.06 2.01,1.74 2.13,3.41 4.07,7.79 7.23,10.64zm-32.68 40.17c-5.57,5.6 -11.4,10.93 -17.49,15.99 -7.68,-1.04 -16.59,-2.57 -26.35,-3.63 0.69,-5.27 2.29,-9.85 2.86,-15.11 1.12,-10.13 -3.06,-9.53 -5.48,-11.53 -5.7,-4.76 -7.03,-18.76 -5.82,-27.8l8.23 6.64c3.04,2.07 5.94,3.34 9.36,5.13 16.8,8.74 27.04,15.49 34.69,30.31zm-154.44 -89.97c4.9,-1.05 6.86,-0.03 11.64,-2.34 2.98,-1.42 6.46,-3.81 10.58,-2.4 2.23,0.76 6.62,4.72 8.02,5.98 7.02,6.2 10.03,18.72 13.1,27.61 2.41,7.07 4.97,12.92 8.15,19.2 6.2,12.26 15.54,21.74 26.1,28.55 5.64,3.63 10.91,7.17 13.97,13.4 1.58,3.23 2.38,7.04 2.17,11.25 -0.15,2.77 -0.45,2.9 -2.35,4.23 -26.24,23.61 -45.18,1.61 -65.72,-4.81 -17.84,-5.95 -28.63,-13.28 -40.6,-6.59 0.84,-3.62 1.28,-7.95 2.16,-11.47 0.96,-3.82 2.4,-6.11 2.98,-10.39 0.68,-5.12 0.17,-15.22 1.51,-25.92 1.07,-8.43 1.96,-16.31 2.43,-24.98 0.21,-3.89 -0.42,-15.61 2.97,-17.81 3.03,-1.95 1.31,-0.51 2.88,-3.52zm-59.1 64.98c0.45,-15.4 4.92,-35.86 8.72,-51.08 2.23,-8.96 0.11,-9.07 9.64,-10.05 9.42,-0.96 8.39,1.96 9.54,10.01 3.22,22.24 5.65,27.84 6.12,53.56 -0.14,3.58 -0.04,7.17 -0.23,10.75 -0.21,3.93 -0.61,5.27 -3.24,7.27 -3.88,-8.25 -36.48,-3.85 -35.43,-7.82 0.33,-1.26 1.21,-3.01 1.8,-4.19 1.23,-2.38 1.94,-5.97 3.07,-8.44z"/>
 </g>
</svg>
